<?xml version="1.0" encoding="UTF-8" standalone="no"?>
<svg width="571px" height="146px" viewBox="0 0 571 146" version="1.1" xmlns="http://www.w3.org/2000/svg" xmlns:xlink="http://www.w3.org/1999/xlink" xmlns:sketch="http://www.bohemiancoding.com/sketch/ns">
    <!-- Generator: Sketch 3.1 (8751) - http://www.bohemiancoding.com/sketch -->
    <title>Group</title>
    <desc>Created with Sketch.</desc>
    <defs></defs>
    <g id="Page-1" stroke="none" stroke-width="1" fill="none" fill-rule="evenodd" sketch:type="MSPage">
        <g id="Group" sketch:type="MSLayerGroup" transform="translate(-17.000000, -52.000000)" fill="#FFFFFF">
            <text id="Scribbble" stroke="#3C3C3C" stroke-width="0.5" sketch:type="MSTextLayer" font-family="Pacifico" font-size="144" font-weight="normal">
                <tspan x="0" y="188">Scribbble</tspan>
            </text>
            <path d="M183.036547,151.921924 C183.969864,148.202271 187,146.520815 187,146.520815 L193,160.052367 L180.662978,170.994148 C180.662978,170.994148 181.969864,156.173095 183.036547,151.921924 Z" id="Path-1" sketch:type="MSShapeGroup"></path>
            <path d="M243.070151,149.13157 C243.302677,147.991694 244.164298,145.655376 244.164298,145.655376 L251.321128,138.805562 L250.774054,161.041099 L240.050563,166.164925 L240.050563,163.386077 C240.050563,163.386077 242.145132,153.666155 243.070151,149.13157 Z" id="Path-2" sketch:type="MSShapeGroup"></path>
            <path d="M273.227508,166.78279 C273.029898,165.261792 273.425117,165.126888 273.425117,165.126888 L284.998657,155.346444 L284.887609,174.694753 L277.399754,179.330242 C277.399754,179.330242 276.199038,178.998904 275.670114,178.74871 C275.115293,178.486266 274.14852,177.792331 274.14852,177.792331 L272.903415,169.49858 C272.903415,169.49858 273.425117,168.303788 273.227508,166.78279 Z" id="Path-3" sketch:type="MSShapeGroup"></path>
            <path d="M340.435378,158.558742 C340.540797,157.419579 341.215829,154.894039 341.215829,154.894039 L349.435192,147.21062 L355.212386,164.54394 L339.464304,176.260559 C339.464304,176.260559 339.541814,174.774174 339.561064,174.080857 C339.574068,173.612478 339.561064,172.77547 339.561064,172.77547 C339.561064,172.77547 339.989209,163.380056 340.435378,158.558742 Z" id="Path-4" sketch:type="MSShapeGroup"></path>
            <path d="M480.616001,170.112973 C480.236625,170.03089 480.161798,168.88659 480.019095,168.479514 C479.104969,165.871871 478.767517,159.809105 477.882635,156.844005 C477.395452,155.211532 477.60339,153.759503 477.60339,153.759503 L486.86265,146.21062 L492.639844,163.54394 L482.031322,169.171449 C482.031322,169.171449 481.162793,170.231279 480.616001,170.112973 Z" id="Path-6" sketch:type="MSShapeGroup"></path>
            <path d="M407.403951,158.643354 C407.428085,158.382564 407.649107,157.468783 407.649107,157.468783 L408.429558,154.894039 L416.648921,147.21062 L422.426115,164.54394 L406.678033,176.260559 C406.678033,176.260559 406.335448,175.554822 406.354697,174.861505 C406.367701,174.393125 406.354697,172.817836 406.354697,172.817836 C406.354697,172.817836 406.957782,163.464669 407.403951,158.643354 Z" id="Path-5" sketch:type="MSShapeGroup"></path>
            <path d="M517.310404,160.71312 C517.310404,160.312438 517.516372,159.643751 517.516372,159.643751 L524.381214,154.622736 L531.026432,172.70905 L523.165014,177.806796 C523.165014,177.806796 522.285757,176.753295 521.992744,176.31007 C521.807455,176.029793 521.73011,175.636291 521.73011,175.636291 L517.516372,162.646698 C517.516372,162.646698 517.310404,161.31342 517.310404,160.71312 Z" id="Path-7" sketch:type="MSShapeGroup"></path>
        </g>
    </g>
</svg>