<?xml version="1.0" encoding="UTF-8" standalone="no"?>
<svg width="446px" height="68px" viewBox="0 0 446 68" version="1.1" xmlns="http://www.w3.org/2000/svg" xmlns:xlink="http://www.w3.org/1999/xlink" xmlns:sketch="http://www.bohemiancoding.com/sketch/ns">
    <!-- Generator: Sketch 3.1 (8751) - http://www.bohemiancoding.com/sketch -->
    <title>Group</title>
    <desc>Created with Sketch.</desc>
    <defs></defs>
    <g id="Page-1" stroke="none" stroke-width="1" fill="none" fill-rule="evenodd" sketch:type="MSPage">
        <g id="Group" sketch:type="MSLayerGroup" transform="translate(4.000000, -17.000000)" fill="#FFFFFF">
            <text id="Designs-brought-to-l" stroke="#3C3C3C" stroke-width="0.5" sketch:type="MSTextLayer" font-family="Pacifico" font-size="48" font-weight="normal">
                <tspan x="0" y="63">Designs brought to life</tspan>
            </text>
            <path d="M47.9335809,56.3631352 C48.0724883,56.0187482 48.5941311,55.4232186 48.5941311,55.4232186 L51.0478086,53.593394 L52.8097254,52.350725 L55.2345309,55.0123535 L51.5881034,58.3548596 L50.8541588,58.9048683 L46.9594853,59.475924 C46.9594853,59.475924 47.5276064,57.36965 47.9335809,56.3631352 Z" id="Path-8" sketch:type="MSShapeGroup"></path>
            <path d="M71.7404544,53.0991207 L74.2925662,51.4666166 L74.3648669,58.3371126 L71.1943872,59.8965135 L71.0785135,59.0425463 L71.470109,54.2511178 L71.7404544,53.0991207 Z" id="Path-9" sketch:type="MSShapeGroup"></path>
            <path d="M82.9412842,55.1686401 L86.2537842,52.322937 L86.3575439,58.6390381 L83.8569336,60.0849609 L83.519104,59.4558716 L82.8616943,56.0457764 L82.9412842,55.1686401 Z" id="Path-10" sketch:type="MSShapeGroup"></path>
            <path d="M106.49861,52.7705764 L107.797891,50.8262423 L109.074492,57.4448778 C109.074492,57.4448778 107.527777,59.2400292 106.75442,60.1376048 C106.632285,60.2793574 106.388015,60.5628626 106.388015,60.5628626 L106.205813,59.5154365 L106.335181,54.1264288 L106.49861,52.7705764 Z" id="Path-11" sketch:type="MSShapeGroup"></path>
            <path d="M124.859816,57.3167521 L124.878112,56.5350358 L129.978454,51.8959937 L130.297568,56.194611 L129.244227,57.2105928 C129.159349,57.292461 128.989591,57.4561975 128.989591,57.4561975 L124.859816,57.3167521 Z" id="Path-12" sketch:type="MSShapeGroup"></path>
            <path d="M128.010916,59.2341686 L128.177787,59.8599904 C128.177787,59.8599904 129.765625,58.7228468 130.559544,58.1542749 L130.805383,57.887717 L129.965024,57.243429 L128.463637,57.1865293 L128.010916,59.2341686 Z" id="Path-13" sketch:type="MSShapeGroup"></path>
            <path d="M183.174984,57.5251697 L183.422064,55.2341734 L183.624092,52.3257798 L183.841878,51.3914008 L187.103012,54.8388048 L185.683564,58.3243921 L183.174984,57.5251697 Z" id="Path-14" sketch:type="MSShapeGroup"></path>
            <path d="M202.058908,51.041059 L202.246872,49.7506626 L207.210431,46.5426496 L206.332189,54.021797 L202.245531,56.0577468 L202.066555,54.879378 L202.058908,51.041059 Z" id="Path-15" sketch:type="MSShapeGroup"></path>
            <path d="M223.925066,50.2720898 L224.117289,49.1645215 L224.509323,46.8271231 L224.701546,45.9206707 L227.656968,48.6783356 L226.705741,53.5714745 L224.43053,52.3713082 L223.925066,50.2720898 Z" id="Path-16" sketch:type="MSShapeGroup"></path>
            <path d="M246.113189,60.3769397 L245.679231,59.6439082 L244.932747,56.1975914 L244.998207,55.0278399 L249.925241,50.4866001 L249.830354,58.6433917 L246.113189,60.3769397 Z" id="Path-17" sketch:type="MSShapeGroup"></path>
            <path d="M268.141663,60.7977905 L267.989685,59.9210815 L267.934753,54.7824707 L267.960571,53.5408325 L269.86377,50.8573608 L271.643494,58.5480347 L268.141663,60.7977905 Z" id="Path-18" sketch:type="MSShapeGroup"></path>
            <path d="M293.092745,51.3193248 L293.176364,52.3067773 L293.360513,53.7463174 L293.565588,54.7927044 L293.778265,55.9122044 L296.155718,54.2041278 L294.598565,48.7436293 L293.29671,49.4177892 L293.092745,51.3193248 Z" id="Path-19" sketch:type="MSShapeGroup"></path>
            <path d="M341.091831,54.006403 L341.057147,52.8574688 L343.779425,49.7715131 L344.345964,59.6511296 L342.296966,58.8106636 L341.859391,57.6962711 L341.091831,54.006403 Z" id="Path-20" sketch:type="MSShapeGroup"></path>
            <path d="M388.940363,54.417665 C388.940363,54.417665 389.080173,53.7500563 389.129734,53.5030957 C389.196789,53.1689662 389.290211,52.6743945 389.290211,52.6743945 L391.534039,50.7938436 L393.874452,59.1284699 L388.76198,60.5902615 L388.484571,59.3535175 L388.940363,54.417665 Z" id="Path-21" sketch:type="MSShapeGroup"></path>
            <path d="M400.547219,60.7105607 L400.78058,58.4908748 L401.148985,54.195938 L404.15754,51.3376177 L403.973337,59.2000697 L400.547219,60.7105607 Z" id="Path-22" sketch:type="MSShapeGroup"></path>
            <path d="M419.670718,46.0369718 L422.19273,43.9591509 L421.577495,52.7581619 L417.888707,53.129474 L417.949777,52.0141064 L418.820863,47.9367108 L419.670718,46.0369718 Z" id="Path-23" sketch:type="MSShapeGroup"></path>
        </g>
    </g>
</svg>