<?xml version="1.0" encoding="UTF-8" standalone="no"?>
<svg width="249px" height="354px" viewBox="0 0 249 354" version="1.1" xmlns="http://www.w3.org/2000/svg" xmlns:xlink="http://www.w3.org/1999/xlink" xmlns:sketch="http://www.bohemiancoding.com/sketch/ns">
    <!-- Generator: Sketch 3.1 (8751) - http://www.bohemiancoding.com/sketch -->
    <title>Shape</title>
    <desc>Created with Sketch.</desc>
    <defs></defs>
    <g id="Page-1" stroke="none" stroke-width="1" fill="none" fill-rule="evenodd" sketch:type="MSPage">
        <g id="ic_edit_location_black_24px" sketch:type="MSLayerGroup" transform="translate(-80.000000, -29.000000)" stroke="#000000" stroke-width="10" fill="#FEFF72">
            <path d="M204.5,34.0833333 C138.719167,34.0833333 85.2083333,87.5941667 85.2083333,153.375 C85.2083333,242.84375 204.5,374.916667 204.5,374.916667 C204.5,374.916667 323.791667,242.84375 323.791667,153.375 C323.791667,87.5941667 270.280833,34.0833333 204.5,34.0833333 L204.5,34.0833333 Z M177.915,204.5 L153.375,204.5 L153.375,179.96 L210.464583,123.040833 L234.834167,147.410417 L177.915,204.5 L177.915,204.5 Z M253.750417,128.664583 L241.82125,140.59375 L217.28125,116.05375 L229.210417,104.124583 C231.766667,101.568333 235.856667,101.568333 238.412917,104.124583 L253.750417,119.462083 C256.306667,122.018333 256.306667,126.108333 253.750417,128.664583 L253.750417,128.664583 Z" id="Shape" sketch:type="MSShapeGroup"></path>
        </g>
    </g>
</svg>